<svg width="30px" height="30px" viewBox="-6 0 268 268" version="1.1" xmlns="http://www.w3.org/2000/svg" xmlns:xlink="http://www.w3.org/1999/xlink" preserveAspectRatio="xMidYMid" fill="#000000" style="--darkreader-inline-fill: #000000;" data-darkreader-inline-fill="">
<g id="SVGRepo_bgCarrier" stroke-width="0"/>
<g id="SVGRepo_tracerCarrier" stroke-linecap="round" stroke-linejoin="round"/>
<g id="SVGRepo_iconCarrier"> <g> <path d="M17.4579119,0 L0,46.5559188 L0,232.757287 L63.9826001,232.757287 L63.9826001,267.690956 L98.9144853,267.690956 L133.811571,232.757287 L186.171922,232.757287 L256,162.954193 L256,0 L17.4579119,0 Z M40.7166868,23.2632364 L232.73141,23.2632364 L232.73141,151.29179 L191.992415,192.033461 L128,192.033461 L93.11273,226.918947 L93.11273,192.033461 L40.7166868,192.033461 L40.7166868,23.2632364 Z M104.724985,139.668381 L127.999822,139.668381 L127.999822,69.843872 L104.724985,69.843872 L104.724985,139.668381 Z M168.721862,139.668381 L191.992237,139.668381 L191.992237,69.843872 L168.721862,69.843872 L168.721862,139.668381 Z" fill="#5A3E85" style="--darkreader-inline-fill: #48326a;" data-darkreader-inline-fill=""> </path> </g> </g>
</svg>